<svg width="41" height="41" viewBox="0 0 41 41" fill="none" xmlns="http://www.w3.org/2000/svg">
<path d="M0 0H40.645V40.645H0V0Z" fill="#0088CF"/>
<path d="M31.2231 14.4579C32.8487 14.3755 34.4942 15.0111 35.5169 16.3025C35.6924 16.5239 35.8421 16.7411 36.0005 16.9755C35.315 17.4955 34.6339 18.0212 33.9571 18.5524C33.8085 18.3033 33.686 18.1151 33.4971 17.8945C33.0235 17.3438 32.2859 16.9511 31.5603 16.9024C31.0035 16.8651 30.1219 17.004 30.1149 17.7216C30.1124 17.9665 30.2446 18.2304 30.446 18.3725C30.7796 18.5985 31.2144 18.7671 31.602 18.8788C33.6502 19.4692 36.2007 19.9598 36.1617 22.6586C36.1333 24.6118 34.7078 25.7575 32.8618 26.0451C32.3043 26.1319 31.8325 26.1344 31.2689 26.126C30.7899 26.0834 30.5016 26.0634 30.0268 25.9369C28.8624 25.6264 27.9266 24.9652 27.2495 23.9661C27.0672 23.6969 26.9227 23.4281 26.7598 23.1468C27.4838 22.6914 28.2579 22.2492 28.9932 21.803C29.4349 22.9558 30.5131 23.7574 31.766 23.7488C32.4052 23.7442 33.42 23.5637 33.3706 22.724C33.3188 21.8466 31.6746 21.574 31.0212 21.3533C30.5991 21.2108 30.1557 21.1179 29.74 20.9456C28.4294 20.4607 27.4058 19.6719 27.3292 18.1747C27.2512 16.6466 27.9311 15.4387 29.358 14.8356C29.991 14.568 30.5443 14.4912 31.2231 14.4579Z" fill="#FEFEFE"/>
<path d="M20.7228 14.4585C21.1913 14.4398 21.6605 14.4745 22.1212 14.5621C23.7094 14.8782 24.6498 15.6713 25.5221 16.9785L23.4778 18.5468C23.3453 18.3094 23.1881 18.0868 23.0087 17.8827C22.4924 17.3052 21.8686 16.9818 21.0484 16.9012C20.2905 16.8267 19.134 17.2857 19.8373 18.2375C19.8672 18.2778 19.977 18.3758 20.0222 18.4036C20.9701 18.9846 22.1544 19.0867 23.1791 19.5018C24.6341 20.0493 25.6922 20.9225 25.6895 22.5941C25.6874 23.468 25.3801 24.3424 24.7334 24.9629C23.6502 26.0024 22.2197 26.1446 20.7962 26.1262C18.5748 25.9606 17.3174 25.0822 16.2889 23.1385L18.5084 21.8041C19.0412 22.998 19.9796 23.7545 21.3339 23.7486C21.943 23.7459 22.9509 23.5381 22.8972 22.7286C22.84 21.8655 21.3015 21.6009 20.647 21.3838C20.2453 21.2505 19.8036 21.1568 19.4051 20.9986C18.0596 20.5333 16.9208 19.7252 16.8474 18.1805C16.7308 15.7257 18.4816 14.5695 20.7228 14.4585Z" fill="#FEFEFE"/>
<path d="M8.04624 14.6502C8.0261 16.033 8.04436 17.4613 8.04411 18.8479L11.8318 18.8461L11.8308 14.6521L14.5567 14.6508C14.5364 15.9216 14.5549 17.2434 14.5549 18.5175L14.5557 25.9487L11.8296 25.9482L11.8322 21.3219L8.04278 21.3227L8.04455 25.9487L5.32031 25.948L5.32129 14.6526L8.04624 14.6502Z" fill="#FEFEFE"/>
</svg>
