<svg width="28.8" height="28.8" viewBox="39.6 3.7 28.8 28.8" fill="none" xmlns="http://www.w3.org/2000/svg">
<path fill-rule="evenodd" clip-rule="evenodd" d="M68.3996 32.4996H39.6V3.69995H68.3996V32.4996ZM61.7249 13.9445C61.2442 13.9681 60.8523 14.0228 60.404 14.2123C59.393 14.6397 58.9108 15.4954 58.9661 16.5781C59.0204 17.6389 59.7459 18.1977 60.6745 18.5413C60.969 18.6633 61.2833 18.7295 61.5824 18.8305C62.0455 18.9869 63.2099 19.1804 63.2466 19.802C63.2812 20.3966 62.5625 20.5246 62.1097 20.5279C61.2221 20.5339 60.4582 19.9655 60.1452 19.1488C59.6242 19.4649 59.0756 19.7783 58.5626 20.101C58.678 20.3001 58.7803 20.4909 58.9093 20.6815C59.389 21.3893 60.0523 21.8586 60.8773 22.0786C61.2136 22.1682 61.4182 22.182 61.7575 22.2121C62.1567 22.2181 62.4911 22.2162 62.886 22.1547C64.1939 21.9509 65.2046 21.1394 65.2249 19.7557C65.2525 17.8434 63.4447 17.4954 61.9934 17.0771C61.719 16.998 61.4111 16.8786 61.1748 16.7186C61.0322 16.618 60.9385 16.4306 60.9402 16.2571C60.9452 15.7487 61.5698 15.6501 61.9643 15.6765C62.4784 15.7111 63.001 15.9894 63.3365 16.3796C63.4703 16.5358 63.5572 16.6695 63.6624 16.8459C64.1419 16.4696 64.6244 16.0968 65.11 15.7284C64.9979 15.5624 64.8918 15.4084 64.7675 15.2516C64.0428 14.3366 62.8768 13.8861 61.7249 13.9445ZM54.2835 13.9452C52.6956 14.0239 51.4552 14.843 51.5378 16.5823C51.5899 17.6767 52.3967 18.2496 53.3501 18.5793C53.6324 18.6914 53.9456 18.7575 54.2302 18.852C54.694 19.0058 55.7837 19.1935 55.8245 19.8048C55.8624 20.3782 55.1482 20.526 54.7167 20.5279C53.7572 20.5321 53.0924 19.9959 52.7148 19.1502L51.142 20.0954C51.8707 21.4725 52.7616 22.0954 54.3354 22.2128C55.344 22.2259 56.3579 22.1245 57.1254 21.388C57.5835 20.9484 57.8013 20.3291 57.8029 19.71C57.8048 18.5257 57.0553 17.9065 56.0245 17.5185C55.2985 17.2244 54.459 17.1523 53.7874 16.7408C53.7555 16.7212 53.6783 16.652 53.6566 16.6231C53.1583 15.9487 53.9776 15.623 54.5146 15.6758C55.0957 15.733 55.5376 15.9622 55.9034 16.3713C56.0304 16.5158 56.1417 16.6737 56.2356 16.8418L57.6845 15.7305C57.0665 14.8043 56.3997 14.2425 55.2744 14.0186C54.948 13.9565 54.6154 13.932 54.2835 13.9452ZM43.3705 14.0822L43.3698 22.0862L45.3004 22.0869L45.299 18.8091L47.9838 18.8084L47.9825 22.0862L49.9137 22.0869L49.9131 16.821C49.9131 15.9184 49.9001 14.9818 49.9144 14.0815L47.9832 14.0822L47.9838 17.0542L45.2997 17.0549C45.2999 16.0726 45.2868 15.0605 45.3011 14.0808L43.3705 14.0822Z" fill="white"/>
</svg>
