<svg width="112" height="75" viewBox="0 0 112 75" fill="none" xmlns="http://www.w3.org/2000/svg">
<rect width="112" height="75" fill="#004CE0"/>
<path d="M56 20C65.9414 20.0002 74 28.0587 74 38C74 47.9407 65.9413 55.9998 56 56C55.8214 56 55.6421 55.9959 55.4648 55.9912L59.1436 45.8818H64.2061C65.0945 45.8818 66.0701 45.1983 66.374 44.3633L70.3652 33.4023C71.0182 31.6086 69.9904 30.1391 68.0811 30.1387H61.0566L55.1641 46.3311H55.1611L51.8213 55.5117C43.8956 53.6273 38 46.5019 38 38C38 29.7432 43.5597 22.7847 51.1396 20.6641L41.9609 45.8818H45.7764L50.6494 32.5049H53.5176L48.6436 45.8818L52.4561 45.8828L56.999 33.4023C57.6519 31.6084 56.6233 30.1388 54.7158 30.1387H51.5088L55.1914 20.0195C55.4595 20.0072 55.7292 20 56 20ZM62.8779 43.5078H60.0117L64.0244 32.4951H66.8906L62.8779 43.5078Z" fill="white"/>
</svg>
